<svg width="737" height="613" viewBox="0 0 737 613" fill="none" xmlns="http://www.w3.org/2000/svg">
<path d="M736.301 597.284C736.301 605.882 571.621 612.879 368.5 612.879C165.379 612.879 0.699219 605.882 0.699219 597.284C0.699219 588.727 165.379 581.73 368.5 581.73C571.621 581.73 736.301 588.727 736.301 597.284Z" fill="#D2D2EA"/>
<path d="M333.094 33.9069H142.07V18.9858C142.07 14.8972 138.74 11.5674 134.652 11.5674H89.0034V56.5414H119.056V224.636C119.056 227.502 121.501 229.82 124.536 229.82H333.094C336.087 229.82 338.574 227.502 338.574 224.636V54.9819V39.0913C338.574 36.2251 336.087 33.9069 333.094 33.9069Z" fill="#C7CBE2"/>
<path d="M494.233 7.81641H389.491C384.686 7.81641 380.766 11.7363 380.766 16.5414V74.4134C380.766 79.2607 384.686 83.1385 389.491 83.1385H494.233C499.081 83.1385 503.001 79.2607 503.001 74.4134V16.5414C503.001 11.7363 499.081 7.81641 494.233 7.81641Z" fill="#C7CBE2"/>
<path d="M323.821 26.9521H115.263C112.228 26.9521 109.783 29.2704 109.783 32.1366V217.681C109.783 220.547 112.228 222.865 115.263 222.865H323.821C326.814 222.865 329.3 220.547 329.3 217.681V32.1366C329.3 29.2704 326.814 26.9521 323.821 26.9521Z" fill="#37365E"/>
<path d="M323.821 26.9521H115.263C112.228 26.9521 109.783 29.2704 109.783 32.1366V47.985H329.3V32.1366C329.3 29.2704 326.814 26.9521 323.821 26.9521Z" fill="#D4D6EB"/>
<path d="M169.467 65.3925H131.659C131.28 65.3925 130.942 65.0553 130.942 64.676V62.6949C130.942 62.3156 131.28 62.0205 131.659 62.0205H169.467C169.847 62.0205 170.184 62.3156 170.184 62.6949V64.676C170.184 65.0553 169.847 65.3925 169.467 65.3925Z" fill="#E9FBFF"/>
<path d="M154.968 72.0097H130.943C130.521 72.0097 130.226 71.6725 130.226 71.2931V69.3543C130.226 68.9328 130.521 68.6377 130.943 68.6377H154.968C155.39 68.6377 155.685 68.9328 155.685 69.3543V71.2931C155.685 71.6725 155.39 72.0097 154.968 72.0097Z" fill="#E9FBFF"/>
<path d="M166.56 79.3866H142.492C142.113 79.3866 141.775 79.0916 141.775 78.6701V76.7312C141.775 76.3519 142.113 76.0146 142.492 76.0146H166.56C166.939 76.0146 167.276 76.3519 167.276 76.7312V78.6701C167.276 79.0916 166.939 79.3866 166.56 79.3866Z" fill="#E9FBFF"/>
<path d="M186.033 86.1308H154.21C153.83 86.1308 153.493 85.8357 153.493 85.4142V83.4753C153.493 83.096 153.83 82.7588 154.21 82.7588H186.033C186.412 82.7588 186.707 83.096 186.707 83.4753V85.4142C186.707 85.8357 186.412 86.1308 186.033 86.1308Z" fill="#E9FBFF"/>
<path d="M178.994 92.874H153.788C153.366 92.874 153.071 92.5789 153.071 92.1996V90.2185C153.071 89.8392 153.366 89.502 153.788 89.502H178.994C179.373 89.502 179.71 89.8392 179.71 90.2185V92.1996C179.71 92.5789 179.373 92.874 178.994 92.874Z" fill="#E9FBFF"/>
<path d="M169.383 113.528H141.902C141.522 113.528 141.185 113.191 141.185 112.812V110.873C141.185 110.493 141.522 110.156 141.902 110.156H169.383C169.805 110.156 170.1 110.493 170.1 110.873V112.812C170.1 113.191 169.805 113.528 169.383 113.528Z" fill="#E9FBFF"/>
<path d="M188.73 127.563H165.927C165.506 127.563 165.21 127.226 165.21 126.847V124.866C165.21 124.486 165.506 124.191 165.927 124.191H188.73C189.109 124.191 189.447 124.486 189.447 124.866V126.847C189.447 127.226 189.109 127.563 188.73 127.563Z" fill="white"/>
<path d="M202.345 134.56H176.928C176.549 134.56 176.254 134.223 176.254 133.844V131.905C176.254 131.484 176.549 131.188 176.928 131.188H202.345C202.766 131.188 203.061 131.484 203.061 131.905V133.844C203.061 134.223 202.766 134.56 202.345 134.56Z" fill="#9D79B5"/>
<path d="M190.922 148.555H165.548C165.126 148.555 164.831 148.26 164.831 147.88V145.899C164.831 145.52 165.126 145.183 165.548 145.183H190.922C191.343 145.183 191.638 145.52 191.638 145.899V147.88C191.638 148.26 191.343 148.555 190.922 148.555Z" fill="#E9FBFF"/>
<path d="M184.557 162.591H154.547C154.167 162.591 153.83 162.254 153.83 161.874V159.935C153.83 159.556 154.167 159.219 154.547 159.219H184.557C184.937 159.219 185.274 159.556 185.274 159.935V161.874C185.274 162.254 184.937 162.591 184.557 162.591Z" fill="#E9FBFF"/>
<path d="M220.553 162.591H190.543C190.163 162.591 189.868 162.254 189.868 161.874V159.935C189.868 159.556 190.163 159.219 190.543 159.219H220.553C220.975 159.219 221.27 159.556 221.27 159.935V161.874C221.27 162.254 220.975 162.591 220.553 162.591Z" fill="#F48E8E"/>
<path d="M264.347 162.591H226.581C226.201 162.591 225.864 162.254 225.864 161.874V159.935C225.864 159.556 226.201 159.219 226.581 159.219H264.347C264.727 159.219 265.064 159.556 265.064 159.935V161.874C265.064 162.254 264.727 162.591 264.347 162.591Z" fill="#9D79B5"/>
<path d="M209.805 141.558H176.718C176.338 141.558 176.001 141.262 176.001 140.841V138.902C176.001 138.523 176.338 138.186 176.718 138.186H209.805C210.185 138.186 210.522 138.523 210.522 138.902V140.841C210.522 141.262 210.185 141.558 209.805 141.558Z" fill="white"/>
<path d="M301.229 141.558H230.29C229.911 141.558 229.616 141.262 229.616 140.841V138.902C229.616 138.523 229.911 138.186 230.29 138.186H301.229C301.608 138.186 301.945 138.523 301.945 138.902V140.841C301.945 141.262 301.608 141.558 301.229 141.558Z" fill="#E9FBFF"/>
<path d="M273.789 134.56H248.372C247.993 134.56 247.656 134.223 247.656 133.844V131.905C247.656 131.484 247.993 131.188 248.372 131.188H273.789C274.21 131.188 274.505 131.484 274.505 131.905V133.844C274.505 134.223 274.21 134.56 273.789 134.56Z" fill="#9D79B5"/>
<path d="M244.916 134.56H207.951C207.571 134.56 207.276 134.223 207.276 133.844V131.905C207.276 131.484 207.571 131.188 207.951 131.188H244.916C245.296 131.188 245.633 131.484 245.633 131.905V133.844C245.633 134.223 245.296 134.56 244.916 134.56Z" fill="#F48E8E"/>
<path d="M251.955 127.563H229.152C228.773 127.563 228.436 127.226 228.436 126.847V124.866C228.436 124.486 228.773 124.191 229.152 124.191H251.955C252.377 124.191 252.672 124.486 252.672 124.866V126.847C252.672 127.226 252.377 127.563 251.955 127.563Z" fill="#E9FBFF"/>
<path d="M221.439 127.563H195.348C194.969 127.563 194.631 127.226 194.631 126.847V124.866C194.631 124.486 194.969 124.191 195.348 124.191H221.439C221.818 124.191 222.155 124.486 222.155 124.866V126.847C222.155 127.226 221.818 127.563 221.439 127.563Z" fill="#F48E8E"/>
<path d="M197.413 120.524H153.914C153.535 120.524 153.198 120.229 153.198 119.808V117.869C153.198 117.49 153.535 117.152 153.914 117.152H197.413C197.835 117.152 198.13 117.49 198.13 117.869V119.808C198.13 120.229 197.835 120.524 197.413 120.524Z" fill="#E9FBFF"/>
<path d="M215.748 120.524H204.41C204.031 120.524 203.693 120.229 203.693 119.808V117.869C203.693 117.49 204.031 117.152 204.41 117.152H215.748C216.128 117.152 216.465 117.49 216.465 117.869V119.808C216.465 120.229 216.128 120.524 215.748 120.524Z" fill="#1D9BC2"/>
<path d="M170.775 155.594H154.631C154.252 155.594 153.915 155.256 153.915 154.877V152.938C153.915 152.517 154.252 152.222 154.631 152.222H170.775C171.196 152.222 171.491 152.517 171.491 152.938V154.877C171.491 155.256 171.196 155.594 170.775 155.594Z" fill="#E9FBFF"/>
<path d="M184.557 168.702H165.548C165.126 168.702 164.831 168.365 164.831 167.986V166.047C164.831 165.625 165.126 165.33 165.548 165.33H184.557C184.937 165.33 185.274 165.625 185.274 166.047V167.986C185.274 168.365 184.937 168.702 184.557 168.702Z" fill="#E9FBFF"/>
<path d="M172.545 175.699H154.547C154.167 175.699 153.83 175.362 153.83 174.983V173.044C153.83 172.664 154.167 172.327 154.547 172.327H172.545C172.924 172.327 173.261 172.664 173.261 173.044V174.983C173.261 175.362 172.924 175.699 172.545 175.699Z" fill="#E9FBFF"/>
<path d="M171.702 182.696H153.704C153.324 182.696 152.987 182.401 152.987 181.98V180.041C152.987 179.661 153.324 179.324 153.704 179.324H171.702C172.123 179.324 172.418 179.661 172.418 180.041V181.98C172.418 182.401 172.123 182.696 171.702 182.696Z" fill="#E9FBFF"/>
<path d="M191.849 189.608H165.548C165.126 189.608 164.831 189.271 164.831 188.892V186.911C164.831 186.532 165.126 186.194 165.548 186.194H191.849C192.271 186.194 192.566 186.532 192.566 186.911V188.892C192.566 189.271 192.271 189.608 191.849 189.608Z" fill="#E9FBFF"/>
<path d="M236.065 196.479H165.548C165.126 196.479 164.831 196.142 164.831 195.763V193.824C164.831 193.402 165.126 193.107 165.548 193.107H236.065C236.486 193.107 236.781 193.402 236.781 193.824V195.763C236.781 196.142 236.486 196.479 236.065 196.479Z" fill="#E9FBFF"/>
<path d="M199.015 189.608H233.578C233.999 189.608 234.294 189.271 234.294 188.892V186.911C234.294 186.532 233.999 186.194 233.578 186.194H199.015C198.593 186.194 198.298 186.532 198.298 186.911V188.892C198.298 189.271 198.593 189.608 199.015 189.608Z" fill="#F48E8E"/>
<path d="M252.293 196.479H301.229C301.608 196.479 301.945 196.142 301.945 195.763V193.824C301.945 193.402 301.608 193.107 301.229 193.107H252.293C251.913 193.107 251.576 193.402 251.576 193.824V195.763C251.576 196.142 251.913 196.479 252.293 196.479Z" fill="#E9FBFF"/>
<path d="M239.563 189.608H258.784C259.163 189.608 259.5 189.271 259.5 188.892V186.911C259.5 186.532 259.163 186.194 258.784 186.194H239.563C239.142 186.194 238.847 186.532 238.847 186.911V188.892C238.847 189.271 239.142 189.608 239.563 189.608Z" fill="#FBF393"/>
<path d="M209.89 182.696H178.951C178.572 182.696 178.235 182.401 178.235 181.98V180.041C178.235 179.661 178.572 179.324 178.951 179.324H209.89C210.269 179.324 210.606 179.661 210.606 180.041V181.98C210.606 182.401 210.269 182.696 209.89 182.696Z" fill="#F48E8E"/>
<path d="M238.13 182.696H215.243C214.864 182.696 214.526 182.401 214.526 181.98V180.041C214.526 179.661 214.864 179.324 215.243 179.324H238.13C238.51 179.324 238.847 179.661 238.847 180.041V181.98C238.847 182.401 238.51 182.696 238.13 182.696Z" fill="#2BB99B"/>
<path d="M256.592 182.696H246.602C246.223 182.696 245.886 182.401 245.886 182.022V180.041C245.886 179.661 246.223 179.324 246.602 179.324H256.592C256.971 179.324 257.308 179.661 257.308 180.041V182.022C257.308 182.401 256.971 182.696 256.592 182.696Z" fill="#1D9BC2"/>
<path d="M300.048 168.702H191.765C190.711 168.702 189.868 167.943 189.868 167.016C189.868 166.089 190.711 165.33 191.765 165.33H300.048C301.102 165.33 301.945 166.089 301.945 167.016C301.945 167.943 301.102 168.702 300.048 168.702Z" fill="#E9FBFF"/>
<path d="M267.719 127.563H257.688C257.308 127.563 257.013 127.226 257.013 126.847V124.866C257.013 124.486 257.308 124.191 257.73 124.191H267.719C268.099 124.191 268.436 124.486 268.436 124.866V126.847C268.436 127.226 268.099 127.563 267.719 127.563Z" fill="#1D9BC2"/>
<path d="M225.105 141.558H215.116C214.694 141.558 214.399 141.262 214.399 140.841V138.902C214.399 138.523 214.694 138.186 215.116 138.186H225.105C225.485 138.186 225.822 138.523 225.822 138.902V140.841C225.822 141.262 225.485 141.558 225.105 141.558Z" fill="#E9FBFF"/>
<path d="M289.722 134.56H280.365C279.943 134.56 279.648 134.223 279.648 133.844V131.905C279.648 131.484 279.943 131.188 280.365 131.188H289.722C290.101 131.188 290.438 131.484 290.438 131.905V133.844C290.438 134.223 290.101 134.56 289.722 134.56Z" fill="#1D9BC2"/>
<path d="M242.809 113.528H178.235C177.814 113.528 177.519 113.191 177.519 112.812V110.873C177.519 110.493 177.814 110.156 178.235 110.156H242.809C243.188 110.156 243.525 110.493 243.525 110.873V112.812C243.525 113.191 243.188 113.528 242.809 113.528Z" fill="white"/>
<path d="M159.647 107.037H141.902C141.522 107.037 141.185 106.742 141.185 106.321V104.382C141.185 104.002 141.522 103.665 141.902 103.665H159.647C160.068 103.665 160.363 104.002 160.363 104.382V106.321C160.363 106.742 160.068 107.037 159.647 107.037Z" fill="#E9FBFF"/>
<path d="M268.857 92.874H257.856C257.477 92.874 257.14 92.5789 257.14 92.1996V90.2185C257.14 89.8392 257.477 89.502 257.856 89.502H268.857C269.279 89.502 269.574 89.8392 269.574 90.2185V92.1996C269.574 92.5789 269.279 92.874 268.857 92.874Z" fill="#F7F081"/>
<path d="M300.934 72.0097H289.932C289.511 72.0097 289.216 71.6725 289.216 71.2931V69.3543C289.216 68.9328 289.511 68.6377 289.932 68.6377H300.934C301.313 68.6377 301.65 68.9328 301.65 69.3543V71.2931C301.65 71.6725 301.313 72.0097 300.934 72.0097Z" fill="#2BB99B"/>
<path d="M301.818 92.874H272.777C272.398 92.874 272.061 92.5789 272.061 92.1996V90.2185C272.061 89.8392 272.398 89.502 272.777 89.502H301.818C302.198 89.502 302.535 89.8392 302.535 90.2185V92.1996C302.535 92.5789 302.198 92.874 301.818 92.874Z" fill="#F48E8E"/>
<path d="M251.323 92.874H187.424C187.044 92.874 186.707 92.5789 186.707 92.1996V90.2185C186.707 89.8392 187.044 89.502 187.424 89.502H251.323C251.702 89.502 251.997 89.8392 251.997 90.2185V92.1996C251.997 92.5789 251.702 92.874 251.323 92.874Z" fill="#F48E8E"/>
<path d="M221.439 99.6601H153.914C153.535 99.6601 153.198 99.3229 153.198 98.9436V96.9625C153.198 96.5832 153.535 96.2881 153.914 96.2881H221.439C221.818 96.2881 222.155 96.5832 222.155 96.9625V98.9436C222.155 99.3229 221.818 99.6601 221.439 99.6601Z" fill="#E9FBFF"/>
<path d="M215.158 86.1308H192.692C192.313 86.1308 191.976 85.8357 191.976 85.4142V83.4753C191.976 83.096 192.313 82.7588 192.692 82.7588H215.158C215.537 82.7588 215.875 83.096 215.875 83.4753V85.4142C215.875 85.8357 215.537 86.1308 215.158 86.1308Z" fill="#F48E8E"/>
<path d="M240.617 72.0097H165.927C165.506 72.0097 165.21 71.6725 165.21 71.2931V69.3543C165.21 68.9328 165.506 68.6377 165.927 68.6377H240.617C240.996 68.6377 241.333 68.9328 241.333 69.3543V71.2931C241.333 71.6725 240.996 72.0097 240.617 72.0097Z" fill="#F48E8E"/>
<path d="M272.693 72.0097H249.216C248.836 72.0097 248.499 71.6725 248.499 71.2931V69.3543C248.499 68.9328 248.836 68.6377 249.216 68.6377H272.693C273.072 68.6377 273.41 68.9328 273.41 69.3543V71.2931C273.41 71.6725 273.072 72.0097 272.693 72.0097Z" fill="#E9FBFF"/>
<path d="M285.465 38.206C285.465 39.9342 284.074 41.283 282.345 41.283C280.659 41.283 279.269 39.9342 279.269 38.206C279.269 36.4779 280.659 35.0869 282.345 35.0869C284.074 35.0869 285.465 36.4779 285.465 38.206Z" fill="#606BF1"/>
<path d="M298.405 38.206C298.405 39.9342 297.014 41.283 295.328 41.283C293.599 41.283 292.208 39.9342 292.208 38.206C292.208 36.4779 293.599 35.0869 295.328 35.0869C297.014 35.0869 298.405 36.4779 298.405 38.206Z" fill="#FBD15B"/>
<path d="M310.46 38.5429C310.46 40.2289 309.069 41.6199 307.341 41.6199C305.613 41.6199 304.222 40.2289 304.222 38.5429C304.222 36.8148 305.613 35.4238 307.341 35.4238C309.069 35.4238 310.46 36.8148 310.46 38.5429Z" fill="#FF8578"/>
<path d="M484.961 76.1834H380.218C375.413 76.1834 371.493 72.3056 371.493 67.4583V9.58637C371.493 4.78127 375.413 0.861328 380.218 0.861328H484.961C489.808 0.861328 493.728 4.78127 493.728 9.58637V67.4583C493.728 72.3056 489.808 76.1834 484.961 76.1834Z" fill="url(#paint0_linear_8377_22012)"/>
<path d="M418.953 31.1675L404.412 37.3635L418.953 43.4753L417.057 47.901L399.606 40.1033V34.7081L417.057 26.8682L418.953 31.1675Z" fill="#F9FBFC"/>
<path d="M440.365 16.7943L429.828 57.3426L424.812 56.1624L435.392 15.6562L440.365 16.7943Z" fill="#F9FBFC"/>
<path d="M465.613 34.7081V40.1033L448.163 47.901L446.267 43.4753L460.766 37.3635L446.267 31.1675L448.163 26.8682L465.613 34.7081Z" fill="#F9FBFC"/>
<path d="M152.987 257.007H93.1763C89.5514 257.007 86.6431 259.957 86.6431 263.54V302.402C86.6431 306.027 89.5514 308.936 93.1763 308.936H152.987C156.57 308.936 159.52 306.027 159.52 302.402V263.54C159.52 259.957 156.57 257.007 152.987 257.007Z" fill="#C7CBE2"/>
<path d="M147.128 251.19H87.3173C83.7345 251.19 80.8262 254.099 80.8262 257.724V296.586C80.8262 300.169 83.7345 303.077 87.3173 303.077H147.128C150.753 303.077 153.661 300.169 153.661 296.586V257.724C153.661 254.099 150.753 251.19 147.128 251.19Z" fill="#D4D6EB"/>
<path d="M111.3 262.402C108.94 262.402 108.181 263.035 108.181 264.763V272.603C108.181 275.638 106.917 276.565 104.767 277.155C106.917 277.703 108.181 278.63 108.181 281.665V289.463C108.181 291.233 108.982 291.865 111.3 291.865V295.279C105.357 295.279 103.713 293.383 103.713 289.421V282.044C103.713 279.895 103.123 279.094 101.227 279.094V275.174C103.123 275.174 103.713 274.331 103.713 272.223V264.805C103.713 260.843 105.357 258.988 111.3 258.988V262.402Z" fill="#F1F2F2"/>
<path d="M130.774 264.805V272.223C130.774 274.331 131.321 275.174 133.303 275.174V279.094C131.321 279.094 130.774 279.895 130.774 282.044V289.421C130.774 293.383 129.13 295.279 123.187 295.279V291.865C125.505 291.865 126.306 291.233 126.306 289.463V281.665C126.306 278.63 127.57 277.703 129.72 277.155C127.57 276.565 126.306 275.638 126.306 272.603V264.763C126.306 263.035 125.547 262.402 123.187 262.402V258.988C129.13 258.988 130.774 260.843 130.774 264.805Z" fill="#F1F2F2"/>
<path d="M132.797 49.5863H79.7305V4.6123H132.797V49.5863Z" fill="url(#paint1_linear_8377_22012)"/>
<path fill-rule="evenodd" clip-rule="evenodd" d="M102.154 35.171L95.1576 41.072C94.0195 41.9993 92.3335 41.8728 91.4062 40.7348C90.4368 39.5967 90.6054 37.9107 91.7013 36.9834L98.6982 31.0824C95.832 25.7715 97.0122 18.9432 101.817 14.8968C107.339 10.2603 115.642 10.9769 120.279 16.4985C124.915 22.0202 124.199 30.2816 118.677 34.9181C113.83 38.9645 106.917 38.9645 102.154 35.171ZM116.19 31.9676C120.11 28.722 120.616 22.8632 117.328 18.9432C114.041 15.0654 108.224 14.5596 104.304 17.8473C100.384 21.0929 99.8784 26.9517 103.166 30.8295C106.454 34.7495 112.27 35.2553 116.19 31.9676Z" fill="white"/>
<path d="M472.273 426.238C471.936 426.533 471.599 426.828 471.22 427.081C468.185 429.189 463.464 431.507 457.647 433.699L501.273 600.571H510.208L472.273 426.238Z" fill="#8B98CC"/>
<g style="mix-blend-mode:multiply" opacity="0.2">
<path d="M472.273 426.238C471.936 426.533 471.599 426.828 471.22 427.081C468.185 429.189 463.464 431.507 457.647 433.699L466.499 467.503L480.24 462.782L472.273 426.238Z" fill="black"/>
</g>
<path d="M362.093 434.837L326.055 600.571H334.99L376.888 440.148C371.745 438.841 366.772 437.113 362.093 434.837Z" fill="#8B98CC"/>
<g style="mix-blend-mode:multiply" opacity="0.2">
<path d="M362.093 434.837L354.084 471.718L369.048 470.201L376.888 440.148C371.745 438.841 366.772 437.113 362.093 434.837Z" fill="black"/>
</g>
<path d="M522.811 334.605C522.179 411.023 509.534 441.623 486.014 452.456C483.106 453.805 480.029 454.816 476.783 455.575C408.5 472.014 312.441 450.349 315.855 428.683C319.227 407.06 356.403 422.74 373.305 415.238C390.249 407.777 384.812 327.861 409.849 292.75C418.448 280.695 434.591 271.717 451.999 268.64C485.255 262.739 523.233 278.25 522.811 334.605Z" fill="#BAC4E8"/>
<path opacity="0.3" d="M522.811 334.605C522.179 411.023 509.534 441.623 486.014 452.456C492.885 444.195 501.272 431.803 505.445 417.008C513.201 389.568 516.193 322.255 505.445 299.157C497.647 282.381 477.584 272.18 451.999 268.64C485.255 262.739 523.233 278.25 522.811 334.605Z" fill="white"/>
<path d="M394.97 417.176C394.97 417.176 474.549 443.352 482.726 401.244C492.758 349.526 489.808 308.64 462.832 300.969C435.898 293.34 407.615 326.891 394.97 417.176Z" fill="#8C98CA"/>
<path d="M464.181 458.146C402.937 461.645 349.912 440.275 338.784 430.538C330.354 423.162 351.935 418.947 363.105 417.345C344.643 418.399 318.637 410.77 315.855 428.683C312.651 449.084 397.289 469.4 464.181 458.146Z" fill="#8C98CA"/>
<path style="mix-blend-mode:multiply" d="M369.259 416.544V416.502C369.174 416.53 369.09 416.558 369.006 416.586C369.174 416.544 369.259 416.544 369.259 416.544Z" fill="url(#paint2_linear_8377_22012)"/>
<path d="M375.413 546.999L382.241 563.775L361.25 573.68L354.422 556.82L375.413 546.999Z" fill="url(#paint3_radial_8377_22012)"/>
<path d="M474.254 360.443C472.948 363.267 388.985 362.551 380.218 363.436C380.218 363.436 314 390.665 305.823 418.062C304.98 420.802 304.727 424.469 305.022 428.811C307.298 467.378 348.142 559.771 348.142 559.771L354.422 556.82L375.413 546.999L378.363 545.608C378.363 545.608 345.992 441.751 352.441 436.187C358.932 430.581 432.399 423.921 457.858 416.503C483.359 409.084 474.254 360.443 474.254 360.443Z" fill="#37365E"/>
<path d="M295.454 551.299L297.098 576.505H274.21L272.566 551.257L295.454 551.299Z" fill="url(#paint4_radial_8377_22012)"/>
<path d="M370.565 360.527L369.722 360.907C369.722 360.907 274.253 375.322 258.741 404.11C248.625 422.867 268.183 559.728 268.183 559.728L301.945 559.813C301.945 559.813 296.887 445.797 298.573 439.432C300.47 432.182 303.715 429.569 305.022 428.81C304.727 424.469 304.98 420.802 305.823 418.062C314 390.665 371.029 361.37 371.029 361.37C370.818 361.244 370.692 360.949 370.565 360.527Z" fill="#37365E"/>
<path d="M380.682 365.332C380.471 365.164 370.692 360.949 370.566 360.527L369.723 360.907C369.723 360.907 309.027 370.053 276.571 388.388C283.02 398.884 293.431 417.472 299.459 436.65C301.355 431.508 303.884 429.443 305.023 428.81C304.727 424.469 304.98 420.802 305.823 418.062C314 390.665 380.682 365.332 380.682 365.332Z" fill="#242345"/>
<path d="M326.35 592.985C327.109 597.537 330.059 600.741 334.274 599.898L390.545 588.602C391.978 588.307 392.905 586.831 392.652 585.314L391.725 579.961C391.725 579.961 332.546 591.089 326.308 592.943L326.35 592.985Z" fill="#F1F2F2"/>
<path d="M343.084 577.727C343.674 577.179 344.222 576.631 344.812 576.083C345.964 575.015 347.074 573.961 348.142 572.922C348.69 572.374 349.28 571.826 349.786 571.32C350.797 570.351 351.767 569.423 352.652 568.58C353.284 567.99 353.874 567.4 354.38 566.894C355.349 565.967 356.15 565.208 356.698 564.66C357.162 564.197 357.878 564.197 358.342 564.618C360.66 566.726 368.163 571.531 381.693 562.511C382.325 562.089 383.168 562.3 383.548 563.016L391.725 579.961C391.725 579.961 332.546 591.088 326.308 592.943C328.373 591.594 335.918 584.555 343.084 577.727Z" fill="#018FFF"/>
<path d="M237.709 592.395C237.793 596.989 240.196 600.699 244.495 600.572L301.735 599.097C303.21 599.055 304.348 597.748 304.306 596.188L304.179 590.709C304.179 590.709 244.073 591.594 237.667 592.353L237.709 592.395Z" fill="#F1F2F2"/>
<path d="M256.465 580.213C257.14 579.75 257.772 579.328 258.446 578.865C259.711 577.993 260.961 577.15 262.198 576.336C262.83 575.872 263.462 575.45 264.052 575.029C265.19 574.228 266.286 573.469 267.298 572.795C267.972 572.331 268.647 571.868 269.237 571.446C270.333 570.687 271.218 570.055 271.85 569.634C272.398 569.254 273.073 569.381 273.494 569.887C275.475 572.373 282.135 578.359 296.845 571.783C297.562 571.446 298.363 571.825 298.615 572.584L304.179 590.709C304.179 590.709 244.073 591.594 237.667 592.353C239.9 591.341 248.415 585.693 256.465 580.213Z" fill="#018FFF"/>
<path d="M506.246 319.39C506.879 315.765 506.963 309.906 506.584 306.239C505.741 296.966 503.802 287.693 502.832 278.42C501.357 264.384 501.062 247.608 494.149 234.331C492.337 230.832 489.766 227.376 486.478 224.931C486.085 224.679 485.677 224.454 485.256 224.257C483.612 223.414 481.926 223.203 480.198 223.709C479.186 224.004 478.217 224.468 477.332 224.974C476.236 225.606 475.308 226.322 474.465 227.208C472.737 228.936 471.473 231.043 470.503 233.277C468.649 237.408 467.637 241.918 467.426 246.47C467.3 250.474 467.679 254.479 468.227 258.441C470.672 265.733 473.327 272.982 474.55 280.443C475.435 285.585 476.404 290.685 477.205 295.828C477.922 300.633 478.47 305.438 478.765 310.243C478.975 314.247 479.144 318.42 480.83 322.256C481.631 324.11 482.853 325.881 484.623 327.103C486.436 328.41 488.628 329.126 490.862 329.337C494.74 329.758 498.997 328.958 501.652 326.302C504.055 323.942 505.699 322.593 506.246 319.39Z" fill="#FCC2B4"/>
<path d="M310.924 313.615C310.924 313.615 374.992 324.321 384.265 313.573C394.254 301.982 379.839 288.536 369.723 290.39C359.607 292.245 318.384 300.464 312.441 302.192C306.498 303.921 307.678 312.561 310.924 313.615Z" fill="#FCC2B4"/>
<path d="M411.957 232.56C412.252 228.767 411.872 224.636 410.439 221.053C410.242 220.66 410.032 220.281 409.807 219.915C409.512 219.494 409.217 219.115 408.88 218.777C407.32 219.03 405.718 219.199 404.159 219.452C401.25 220 398.637 221.18 396.108 222.655C393.832 224.004 391.725 225.648 389.828 227.502C387.847 229.483 386.203 231.76 384.812 234.12C381.946 238.967 380.091 244.278 378.152 249.547C376.86 253.031 375.525 256.488 374.148 259.916C373.769 261.096 373.347 262.276 372.884 263.456C371.029 268.261 369.259 273.067 367.32 277.829C365.465 282.297 363.526 286.681 361.334 290.938C359.522 294.479 357.541 298.146 356.993 302.192C356.698 304.173 356.866 306.239 357.625 308.093C358.468 310.032 359.901 311.634 361.587 312.814C364.538 314.879 368.416 316.102 371.872 315.006C374.991 314.036 377.436 311.549 379.332 308.894C381.44 305.944 383.084 302.614 384.643 299.326C388.605 290.938 392.989 282.803 396.867 274.373C402.726 261.644 410.903 247.06 411.957 232.56Z" fill="#FCC2B4"/>
<path d="M398.806 213.045C398.806 213.045 383.927 215.658 377.225 227.84C370.566 240.021 355.265 291.444 355.265 291.444C355.265 291.444 365.17 299.115 382.368 299.621C382.958 299.649 383.576 299.663 384.222 299.663C402.515 299.663 398.806 213.045 398.806 213.045Z" fill="url(#paint5_linear_8377_22012)"/>
<path d="M505.361 286.723C505.361 286.723 499.713 238.925 493.896 226.448C488.121 213.972 463.885 210.01 463.885 210.01C462.199 209.56 460.471 209.139 458.701 208.745C437.584 204.067 415.497 206.048 395.349 213.93L395.307 213.972C395.307 213.972 385.191 238.967 381.271 274.668C378.363 300.927 370.902 361.117 370.902 361.117C370.902 361.117 417.267 388.051 475.477 370.854C475.477 370.854 472.863 321.244 474.465 288.999C481.799 289.167 497.099 289.462 505.361 286.723Z" fill="url(#paint6_linear_8377_22012)"/>
<path d="M468.943 239.094C461.019 239.768 453.221 238.672 445.044 238.63C425.065 238.504 405.929 239.052 387.552 239.304C386.962 241.623 386.877 242.044 386.287 244.657C402.641 244.067 419.038 245.711 436.361 246.554C448.248 247.144 459.46 246.976 470.25 246.301C470.545 245.838 471.557 244.152 471.346 241.876C471.093 239.431 469.323 239.473 468.943 239.094Z" fill="#DADAF7"/>
<path d="M471.81 260.169C462.031 261.18 451.746 259.073 441.588 258.988C421.356 258.904 401.63 261.349 383.042 261.602C382.62 264.004 382.578 264.552 382.199 267.123C398.595 266.533 415.497 266.07 432.947 266.913C446.899 267.587 460.008 267.292 472.484 266.28C472.189 263.414 472.147 263.203 471.81 260.169Z" fill="#DADAF7"/>
<path d="M434.675 299.747C415.118 299.62 396.277 300.168 378.279 300.421C377.97 302.866 377.675 305.325 377.394 307.797C393.158 307.249 409.343 306.828 426.035 307.671C443.148 308.514 459.038 307.84 474.001 306.238C474.044 303.119 474.086 300 474.17 296.965C461.356 298.693 448.163 299.831 434.675 299.747Z" fill="#DADAF7"/>
<path d="M474.044 326.26C474.002 323.183 473.96 320.064 473.96 316.902C460.134 318.841 445.846 320.19 431.219 320.106C412.041 320.021 393.537 320.527 375.834 320.78C375.525 323.281 375.23 325.74 374.949 328.156C390.376 327.608 406.267 327.229 422.579 328.03C441.04 328.957 458.069 328.114 474.044 326.26Z" fill="#DADAF7"/>
<path d="M474.255 336.797C459.249 339.031 443.738 340.59 427.805 340.506C408.922 340.38 390.798 340.843 373.348 341.138C373.052 343.794 372.715 346.239 372.462 348.472C387.594 347.967 403.148 347.629 419.122 348.388C439.102 349.4 457.395 348.346 474.508 346.154C474.423 343.162 474.339 340.042 474.255 336.797Z" fill="#DADAF7"/>
<path d="M475.308 367.819C475.224 365.67 475.098 362.424 474.929 358.42C458.659 360.443 441.715 361.792 424.391 361.16C405.761 360.443 388.1 359.895 371.156 359.136C370.987 360.401 370.903 361.118 370.903 361.118C370.903 361.118 375.286 363.647 383 366.639C393.664 367.229 404.496 367.904 415.498 368.789C437.163 370.517 456.889 369.843 475.308 367.819Z" fill="#DADAF7"/>
<path d="M467.089 220.084C461.062 220.463 454.655 218.314 448.459 218.271C429.407 218.145 411.114 218.609 393.495 218.862C392.821 220.843 392.652 221.264 391.767 224.257C407.531 223.709 423.127 225.353 439.818 226.153C449.555 226.659 458.87 226.659 467.848 226.28C469.365 223.456 467.426 222.486 467.089 220.084Z" fill="#DADAF7"/>
<path d="M450.271 207.228C437.121 205.458 423.801 206.132 410.861 209.125C407.616 212.033 405.044 220.843 409.386 223.287C415.245 226.617 424.476 231.675 438.132 223.456C446.984 218.103 451.662 211.654 450.271 207.228Z" fill="#4D5383"/>
<path d="M414.191 209.967C412.041 214.225 408.501 217.386 415.034 221.053C419.46 223.582 424.349 223.919 428.817 222.275C434.296 220.252 439.312 217.091 443.527 213.044C444.707 211.864 445.888 210.6 446.436 209.04C447.827 205.289 443.991 203.055 443.696 199.556C442.769 189.103 441.504 178.186 442.263 167.607C442.305 166.469 442.389 165.204 442.811 164.15C442.6 163.855 442.347 163.56 441.968 163.392C440.619 162.802 438.933 163.055 437.542 163.35C435.982 163.729 434.465 164.361 432.863 164.825C429.154 166.005 425.487 167.48 422.073 169.335C418.701 171.189 415.877 173.676 412.968 176.079C411.999 176.88 410.903 177.554 410.06 178.524C409.765 178.861 409.386 179.324 409.386 179.83C409.386 180.505 410.144 180.884 410.482 181.39C412.842 184.593 413.811 189.567 414.486 193.529C415.287 197.955 415.919 202.507 415.202 206.975C414.992 208.113 414.655 209.082 414.191 209.967Z" fill="#FCC2B4"/>
<path d="M414.233 209.925C429.576 211.527 439.059 202.001 443.359 196.058C442.811 189.988 442.263 183.835 442.094 177.638L439.818 177.428L409.428 179.577C409.386 179.662 409.386 179.746 409.386 179.83C409.386 180.505 410.144 180.884 410.482 181.39C412.842 184.593 413.811 189.567 414.486 193.529C415.287 197.955 415.919 202.507 415.202 206.975C415.034 208.071 414.654 209.04 414.233 209.925Z" fill="#FBA896"/>
<path d="M432.146 323.857C431.809 322.508 431.261 321.16 430.46 319.979C429.702 318.841 428.69 317.872 427.51 317.113C425.992 316.102 424.306 315.217 422.705 314.289C421.047 313.334 419.389 312.406 417.731 311.507C416.298 310.706 414.823 309.821 413.305 309.231C412.715 308.978 412.083 308.81 411.451 308.852C410.018 308.557 408.5 308.346 407.067 308.177C405.086 307.925 403.147 307.756 401.208 307.63C399.564 307.587 397.921 307.545 396.319 307.798C394.717 308.051 393.284 308.599 391.851 309.4C390.755 310.032 389.49 310.411 388.395 311.17C388.015 311.465 387.594 311.845 387.509 312.392C387.425 312.856 387.72 313.193 388.1 313.446C388.521 313.741 388.985 313.91 389.533 313.994C392.062 314.205 394.591 313.32 397.078 312.814C397.878 312.645 398.721 312.645 399.522 312.603C400.745 312.603 401.967 312.688 403.189 312.856C404.004 312.997 404.819 313.165 405.634 313.362C405.381 313.362 405.114 313.376 404.833 313.404C403.569 313.573 402.388 314.036 401.124 314.331C399.944 314.669 398.764 314.921 397.625 315.512C396.782 315.764 396.024 316.06 395.265 316.481C393.874 317.24 392.61 318.209 391.387 319.263C390.966 319.642 390.502 320.022 389.996 320.401C389.238 320.865 388.479 321.328 387.762 321.834C387.004 322.34 386.203 323.014 385.823 323.899C385.36 324.911 386.203 325.501 387.088 325.712C388.605 326.049 389.87 325.29 391.008 324.405C392.483 323.309 394.043 322.34 395.687 321.497C397.373 320.654 399.143 320.19 401.04 320.106C401.096 320.106 401.166 320.106 401.25 320.106C401.11 320.134 400.983 320.176 400.871 320.232C400.028 320.485 399.354 321.118 398.679 321.708C397.035 323.267 395.181 324.616 393.41 326.049C392.525 326.766 391.598 327.482 390.671 328.199C390.081 328.662 386.582 331.191 388.521 331.908C389.069 332.119 389.743 332.077 390.334 331.992C391.092 331.866 391.851 331.571 392.567 331.234C394.127 330.433 395.476 329.295 396.825 328.157C397.541 327.566 398.216 326.892 399.016 326.386C400.028 325.754 401.208 325.459 402.388 325.29C404.243 325.08 406.14 325.164 407.994 325.375C407.32 325.459 406.646 325.557 405.971 325.67C403.105 326.176 401.166 327.777 398.89 329.505C397.836 330.306 396.53 330.812 395.518 331.655C394.886 332.161 394.211 333.046 394.717 333.847C395.096 334.479 395.939 334.437 396.572 334.31C398.595 333.931 400.323 332.624 402.136 331.655C404.201 330.559 406.519 330.053 408.795 329.505C411.409 328.831 413.263 329.8 415.666 330.686C416.846 331.107 418.026 331.486 419.206 331.824C421.651 332.498 424.138 333.046 426.667 333.299C427.636 333.383 428.648 333.341 429.533 332.92C430.207 332.624 430.755 332.161 431.177 331.571C432.905 329.548 432.821 326.302 432.146 323.857Z" fill="#FCC2B4"/>
<g style="mix-blend-mode:screen">
<path d="M395.898 308.894C398.975 308.093 402.052 307.882 405.213 308.135C408.416 308.388 411.62 309.02 414.697 309.948C414.837 310.004 414.978 310.046 415.118 310.074C414.528 309.779 413.896 309.484 413.306 309.231C412.715 308.978 412.083 308.81 411.451 308.852C410.018 308.557 408.5 308.346 407.067 308.177C405.086 307.925 403.147 307.756 401.209 307.63C399.565 307.587 397.921 307.545 396.319 307.798C394.717 308.051 393.284 308.599 391.851 309.4C390.755 310.032 389.491 310.411 388.395 311.17C388.142 311.381 387.805 311.676 387.636 311.971C390.334 310.749 393.031 309.653 395.898 308.894Z" fill="#F6DFC9"/>
</g>
<g style="mix-blend-mode:screen">
<path d="M389.617 321.413C391.008 320.443 392.525 319.643 394.085 318.842C395.602 318.041 397.12 317.24 398.722 316.566C400.408 315.849 402.136 315.217 403.906 314.88C405.339 314.584 406.772 314.374 408.205 314.079C407.236 313.615 406.14 313.446 405.002 313.404C404.946 313.404 404.889 313.404 404.833 313.404C403.569 313.573 402.389 314.037 401.124 314.332C399.944 314.669 398.764 314.922 397.626 315.512C396.783 315.765 396.024 316.06 395.265 316.481C393.874 317.24 392.61 318.209 391.387 319.263C390.966 319.643 390.502 320.022 389.996 320.401C389.238 320.865 388.479 321.328 387.763 321.834C387.004 322.34 386.203 323.015 385.824 323.9C385.613 324.321 385.655 324.658 385.866 324.953C386.835 323.52 388.184 322.382 389.617 321.413Z" fill="#F4B79F"/>
</g>
<g style="mix-blend-mode:multiply">
<path d="M400.155 320.19C401.588 319.684 403.105 319.305 404.581 318.883C402.684 318.757 400.787 318.799 398.89 319.178C396.825 319.6 394.886 320.317 393.031 321.37C392.188 321.876 391.303 322.382 390.545 323.014C389.955 323.478 389.449 323.984 388.859 324.447C388.226 324.953 387.383 325.501 386.583 325.543C386.751 325.599 386.92 325.656 387.088 325.712C388.606 326.049 389.87 325.29 391.008 324.405C392.484 323.309 394.043 322.34 395.687 321.497C397.12 320.78 398.595 320.359 400.155 320.19Z" fill="#F6DFC9"/>
</g>
<g style="mix-blend-mode:multiply">
<path d="M429.575 330.517C428.69 330.812 427.805 331.065 426.878 331.191C424.897 331.444 422.831 331.149 420.892 330.728C418.869 330.348 416.888 329.716 414.907 329.168C413.263 328.662 411.577 328.156 409.849 328.03C408.205 327.904 406.561 328.114 405.044 328.62C402.979 329.379 401.208 330.601 399.396 331.781C398.511 332.329 397.668 332.919 396.741 333.341C396.193 333.594 395.602 333.805 395.012 333.805C394.9 333.805 394.802 333.805 394.717 333.805C394.717 333.833 394.717 333.847 394.717 333.847C395.097 334.479 395.94 334.437 396.572 334.31C398.595 333.931 400.323 332.624 402.136 331.655C404.201 330.559 406.519 330.053 408.795 329.505C411.409 328.831 413.263 329.8 415.666 330.685C416.846 331.107 418.026 331.486 419.206 331.823C421.651 332.498 424.138 333.046 426.667 333.299C427.636 333.383 428.648 333.341 429.533 332.919C430.208 332.624 430.756 332.161 431.177 331.571C431.683 330.98 432.062 330.264 432.273 329.463C431.261 329.969 430.081 330.348 429.575 330.517Z" fill="#F6DFC9"/>
</g>
<g style="mix-blend-mode:multiply">
<path d="M402.388 325.291C404.243 325.08 406.14 325.164 407.994 325.375C407.966 325.375 407.952 325.375 407.952 325.375C408.837 325.333 409.723 325.291 410.523 325.038C408.711 324.405 406.814 324.026 404.917 323.9C402.894 323.815 400.829 323.984 398.974 324.743C396.867 325.543 395.223 327.229 393.453 328.663C392.567 329.379 391.682 330.054 390.671 330.559C389.996 330.939 389.238 331.149 388.479 331.065C388.31 331.037 388.156 331.009 388.015 330.981C387.889 331.36 387.973 331.697 388.521 331.908C389.069 332.119 389.743 332.077 390.334 331.992C391.092 331.866 391.851 331.571 392.567 331.234C394.127 330.433 395.476 329.295 396.825 328.157C397.541 327.567 398.216 326.892 399.016 326.386C400.028 325.754 401.208 325.459 402.388 325.291Z" fill="#F6DFC9"/>
</g>
<g style="mix-blend-mode:multiply">
<path d="M399.523 312.603C400.745 312.603 401.967 312.688 403.19 312.856C403.668 312.941 404.159 313.039 404.665 313.151C405.03 313.123 405.396 313.095 405.761 313.067C404.117 312.435 402.389 311.887 400.661 311.55C398.764 311.212 396.825 311.212 394.928 311.592C393.917 311.803 392.863 312.098 391.894 312.561C391.093 312.898 390.334 313.32 389.449 313.531C389.07 313.615 388.648 313.615 388.227 313.531C388.606 313.741 389.07 313.91 389.533 313.994C392.062 314.205 394.591 313.32 397.078 312.814C397.879 312.646 398.722 312.646 399.523 312.603Z" fill="#F6DFC9"/>
</g>
<path d="M428.479 330.475C428.479 330.475 482.136 335.195 494.95 329.758C507.806 324.321 507.974 311.549 502.115 306.913C496.257 302.276 486.688 301.77 477.289 305.817C467.89 309.905 427.088 319.684 427.088 319.684L428.479 330.475Z" fill="#FCC2B4"/>
<path d="M388.985 152.686C388.985 152.686 390.755 168.998 392.146 177.681C393.537 186.364 396.488 206.216 413.769 206.258C431.051 206.258 439.27 196.058 444.876 191.337C444.876 191.337 462.115 169.714 458.406 164.446C454.655 159.135 449.049 142.275 432.231 145.141C415.455 148.049 388.985 152.686 388.985 152.686Z" fill="#FCC2B4"/>
<path d="M432.231 145.141C415.455 148.049 388.985 152.686 388.985 152.686C388.985 152.686 389.111 153.908 389.364 155.889C395.729 157.997 402.262 160.188 406.309 158.545C406.309 158.545 406.309 159.598 403.864 160.821C403.864 160.821 426.288 163.603 436.235 156.732C436.235 156.732 433.959 168.492 440.745 172.285L447.784 149.356C444.033 146.11 439.101 144.003 432.231 145.141Z" fill="#FBA896"/>
<path d="M407.615 123.181C411.24 120.989 414.823 118.671 418.153 116.437C423.801 112.601 430.713 111.084 437.289 112.601C450.945 115.763 456.762 127.565 456.762 127.565L463.295 132.412C469.829 137.217 469.323 155.046 463.675 165.204C453.179 184.214 444.159 192.096 444.159 192.096C443.443 192.223 443.358 191.675 443.653 190.705C444.075 186.532 442.895 183.877 442.895 183.877C455.076 178.65 454.528 166.469 449.133 165.331C443.738 164.193 440.829 174.941 440.829 174.941L439.565 171.485C437.036 162.296 440.408 151.168 440.408 151.168C440.408 151.168 440.155 151.379 439.607 151.716C439.607 151.773 439.593 151.815 439.565 151.843C439.565 151.843 435.813 157.87 428.648 158.84C428.648 158.84 429.617 157.702 430.84 156.142C425.402 158.25 418.026 159.936 409.723 158.798C409.723 158.798 415.16 157.365 419.122 155.088C413.727 155.468 407.531 155.594 400.745 155.004C377.394 153.065 372.041 137.933 372.041 137.933C384.053 134.983 394.127 131.484 407.615 123.181Z" fill="#3F3C51"/>
<path d="M404.665 182.486C404.665 182.233 403.822 181.938 403.442 180.758C403.232 180.21 403.19 179.536 403.4 178.693C403.611 177.892 404.033 177.049 404.58 176.037C406.646 172.075 407.952 168.661 407.531 168.408C407.109 168.155 405.044 171.19 402.979 175.194C402.473 176.164 401.967 177.26 401.799 178.398C401.714 178.946 401.714 179.494 401.799 180.042C401.925 180.547 402.094 181.011 402.347 181.39C402.81 182.107 403.442 182.529 403.906 182.613C404.37 182.739 404.623 182.613 404.665 182.486Z" fill="#F69D7D"/>
<path d="M414.359 164.446C414.528 164.699 415.329 164.404 416.635 164.151C417.9 163.856 419.67 163.645 421.609 163.94C423.463 164.277 425.149 165.036 426.245 165.71C426.835 166.047 427.299 166.342 427.636 166.511C427.974 166.722 428.226 166.806 428.311 166.722C428.395 166.595 428.395 166.342 428.184 166.005C427.974 165.584 427.636 165.12 427.088 164.572C426.035 163.518 424.222 162.338 421.862 161.959C419.628 161.622 417.478 162.127 416.172 162.802C414.865 163.476 414.233 164.235 414.359 164.446Z" fill="#3E3533"/>
<path d="M403.232 162.928C403.4 162.759 403.105 161.959 402.178 161.031C401.251 160.104 399.607 159.092 397.668 158.797C395.602 158.46 393.79 158.924 392.652 159.514C392.062 159.809 391.64 160.104 391.387 160.357C391.092 160.61 391.008 160.821 391.05 160.947C391.135 161.031 391.345 161.031 391.682 160.947C392.02 160.891 392.469 160.792 393.031 160.652C394.127 160.441 395.729 160.23 397.331 160.526C399.059 160.778 400.45 161.453 401.419 162.043C402.431 162.633 403.063 163.055 403.232 162.928Z" fill="#3E3533"/>
<path d="M416.551 171.527C416.087 173.634 416.635 175.7 417.815 176.121C419.038 176.501 420.387 175.152 420.85 173.044C421.314 170.895 420.766 168.872 419.586 168.45C418.406 168.029 417.057 169.377 416.551 171.527Z" fill="#3E3533"/>
<path d="M394.886 168.45C394.507 170.178 394.97 171.864 395.94 172.201C396.909 172.538 398.005 171.442 398.385 169.672C398.806 167.944 398.342 166.258 397.373 165.921C396.403 165.583 395.265 166.721 394.886 168.45Z" fill="#3E3533"/>
<path d="M411.957 188.134C408.037 189.525 403.231 189.567 399.312 188.218C399.817 191.717 400.618 194.246 405.423 194.541C409.343 194.751 412.083 191.717 411.957 188.134Z" fill="#CB4453"/>
<path d="M411.956 188.303C411.535 188.387 411.113 188.513 410.734 188.682C407.826 189.778 405.212 191.717 403.273 194.204C403.864 194.372 404.58 194.457 405.423 194.541C409.259 194.752 411.956 191.801 411.956 188.303Z" fill="#DD5664"/>
<path d="M400.745 188.64C400.829 189.44 400.913 190.031 400.998 190.241C401.124 190.536 406.477 192.264 411.746 190.073C411.914 189.44 411.999 188.935 411.957 188.134C408.922 189.188 403.906 189.314 400.745 188.64Z" fill="#F8E8D8"/>
<path d="M473.58 277.155C462.031 278.546 450.187 279.431 438.132 279.389C418.153 279.263 398.764 282.087 380.386 282.34C380.134 284.658 380.091 284.827 379.796 287.44C395.856 286.892 412.42 286.47 429.491 287.271C445.424 288.072 460.261 287.524 474.297 286.175C474.17 283.689 473.875 280.612 473.58 277.155Z" fill="#DADAF7"/>
<path d="M470.461 249.631L471.557 263.372L474.465 288.999C476.278 289.041 478.596 289.083 481.209 289.125L470.461 249.631Z" fill="#B1B0F2"/>
<path d="M400.745 155.004C407.531 155.594 413.727 155.468 419.122 155.088C415.16 157.364 409.723 158.798 409.723 158.798C418.026 159.936 425.402 158.25 430.84 156.142C429.617 157.702 428.648 158.84 428.648 158.84C435.813 157.87 439.565 151.843 439.565 151.843C439.607 151.801 439.607 151.758 439.607 151.716C440.155 151.379 440.408 151.168 440.408 151.168C440.408 151.168 437.036 162.296 439.565 171.485L440.829 174.941C440.829 174.941 443.738 164.193 449.133 165.331C454.528 166.469 455.076 178.65 442.895 183.877C442.895 183.877 444.075 186.532 443.653 190.705C443.358 191.675 443.443 192.222 444.159 192.096C444.159 192.096 451.283 185.858 460.218 171.19C457.9 165.373 455.202 157.912 454.907 153.613C454.402 145.942 442.6 129.714 428.353 137.933C414.148 146.153 372.041 137.933 372.041 137.933C372.041 137.933 377.394 153.065 400.745 155.004Z" fill="#332D49"/>
<path d="M274.126 330.685L397.12 331.444L352.399 237.955L229.363 237.196L274.126 330.685Z" fill="#37365E"/>
<path d="M274.042 330.558L394.211 331.443L349.996 239.978L229.784 239.135L274.042 330.558Z" fill="#6D78B8"/>
<path d="M349.195 241.284L230.121 240.399L229.784 239.135L349.996 239.978L394.211 331.443H393.115L349.195 241.284Z" fill="#6D78B8"/>
<g style="mix-blend-mode:multiply" opacity="0.2">
<path d="M274.042 330.559C365.803 320.401 346.118 241.243 346.118 241.243L347.299 239.979H349.996L394.212 331.444L274.042 330.559Z" fill="#A5C0D7"/>
</g>
<path d="M273.283 337.724L446.435 338.988L446.52 330.895L273.368 329.631L273.283 337.724Z" fill="#7E8BC1"/>
<path d="M396.698 338.651L446.435 338.989L446.52 330.896L396.783 330.559L396.698 338.651Z" fill="#37365E"/>
<path d="M285.422 252.876H253.304L251.028 248.281H283.104L285.422 252.876Z" fill="#8B98CC"/>
<path d="M166.349 367.271L134.821 595.513C134.441 598.927 135.917 600.739 138.488 600.571C140.089 600.444 141.776 599.264 142.239 597.199L197.666 367.271H166.349Z" fill="#FFFEFB"/>
<path opacity="0.4" d="M164.537 380.59L193.325 385.269L197.667 367.271H166.349L164.537 380.59Z" fill="#667DA7"/>
<path d="M574.445 367.271L605.973 595.513C606.352 598.927 604.877 600.739 602.306 600.571C600.662 600.444 599.018 599.264 598.555 597.199L543.127 367.271H574.445Z" fill="#FFFEFB"/>
<path opacity="0.4" d="M576.257 380.59L547.469 385.269L543.127 367.271H574.445L576.257 380.59Z" fill="#667DA7"/>
<path d="M612.759 338.735H128.034C124.325 338.735 121.333 341.728 121.333 345.437C121.333 349.146 124.325 352.139 128.034 352.139H612.759C616.469 352.139 619.461 349.146 619.461 345.437C619.461 341.728 616.469 338.735 612.759 338.735Z" fill="#AFB6DD"/>
<path d="M134.778 352.139L146.201 371.022H586.373C591.474 371.022 596.237 368.324 598.85 363.941L606.015 352.139H134.778Z" fill="#BAC4E8"/>
<path d="M134.778 352.139H606.015L602.348 358.166H138.445L134.778 352.139Z" fill="#889AC8"/>
<path d="M633.286 493.342C633.624 496.588 632.359 499.496 630.083 501.73C627.849 503.922 624.941 505.271 622.37 506.999C618.829 509.444 616.679 512.984 617.185 517.41C617.691 521.625 620.388 525.292 620.515 529.549C620.641 533.553 618.913 537.389 616.595 540.55C614.782 543.037 612.338 545.903 609.261 546.831C605.973 547.842 602.137 546.789 598.85 546.114C598.007 545.988 597.122 545.819 596.237 545.608C595.562 545.482 594.888 545.355 594.213 545.187C588.692 544.007 582.917 542.321 579.124 538.232C575.246 534.059 574.192 528.453 577.185 523.522C579.882 519.18 584.308 516.146 586.795 511.678C587.554 510.287 587.975 508.769 588.059 507.252C587.975 506.704 587.891 506.114 587.722 505.524C586.668 501.393 584.392 497.642 583.381 493.511C582.453 489.928 582.453 486.008 583.676 482.468C584.814 479.096 587.006 476.187 589.535 473.743C592.274 471.003 595.098 468.727 596.405 464.975C597.627 461.351 597.206 457.515 597.08 453.763C596.953 450.391 597.923 447.146 600.03 444.49C602.348 441.582 605.467 440.276 608.544 438.421C611.326 436.735 613.349 434.417 614.361 431.255C615.373 428.094 615.373 424.764 615.921 421.519C616.426 418.526 617.311 415.533 618.913 412.962C621.948 408.242 628.945 405.586 633.876 409.084C638.513 412.33 638.977 419.285 638.429 424.385C638.007 428.178 636.49 431.635 635.478 435.26C634.93 437.199 634.635 439.264 635.099 441.245C635.562 443.268 636.869 444.912 637.881 446.64C639.82 450.096 641.337 454.059 640.873 458.063C640.452 461.898 638.134 464.849 635.352 467.336C633.076 469.359 630.209 471.171 628.776 473.953C627.09 477.157 628.144 480.697 629.577 483.774C631.01 486.809 632.907 489.928 633.286 493.342Z" fill="url(#paint7_linear_8377_22012)"/>
<path d="M618.913 412.962C617.311 415.533 616.426 418.526 615.921 421.519C615.373 424.764 615.373 428.094 614.361 431.255C613.349 434.417 611.326 436.735 608.544 438.421C605.467 440.275 602.348 441.582 600.03 444.49C597.923 447.146 596.953 450.391 597.08 453.763C597.206 457.515 597.627 461.35 596.405 464.975C595.098 468.727 592.274 471.003 589.535 473.742C587.006 476.187 584.814 479.096 583.676 482.468C582.453 486.008 582.453 489.928 583.381 493.511C584.392 497.642 586.668 501.393 587.722 505.524C587.891 506.114 587.975 506.704 588.059 507.252C587.975 508.769 587.554 510.287 586.795 511.677C584.308 516.145 579.882 519.18 577.185 523.522C574.192 528.453 575.246 534.059 579.124 538.232C582.917 542.321 588.692 544.007 594.213 545.187C594.888 545.355 595.562 545.482 596.237 545.608C597.122 545.819 597.965 545.988 598.85 546.114C602.137 546.788 605.973 547.842 609.261 546.831C610.525 546.451 611.706 545.693 612.759 544.85C608.924 534.565 609.387 523.901 601.421 498.695C590.504 464.301 625.32 419.748 633.286 408.705C628.397 405.839 621.822 408.41 618.913 412.962Z" fill="url(#paint8_linear_8377_22012)"/>
<path d="M619.124 451.951C618.281 455.491 616.089 458.526 614.993 461.982C613.926 465.382 612.872 468.797 611.832 472.225C609.851 478.547 608.629 485.08 606.816 491.445C604.962 497.978 603.065 504.427 601.463 511.003C599.819 517.578 598.723 524.196 597.88 530.897C597.501 534.017 597.122 537.136 596.742 540.297C596.532 542.025 596.489 543.838 596.237 545.608C595.562 545.481 594.888 545.355 594.213 545.186C594.34 542.952 594.761 540.718 595.014 538.653C595.351 535.113 595.731 531.614 596.279 528.073C597.248 521.456 598.555 515.007 600.199 508.516C601.927 501.856 603.95 495.365 605.762 488.748C607.533 482.299 609.05 475.723 611.453 469.485C612.549 466.45 613.392 463.289 614.698 460.296C615.921 457.388 617.944 454.859 618.913 451.866C618.998 451.74 619.166 451.824 619.124 451.951Z" fill="#2DA59A"/>
<path d="M604.371 538.021C601.884 542.616 596.911 543.712 592.021 543.838C591.979 543.796 591.895 543.838 591.811 543.838C591.263 543.796 590.673 543.838 590.082 543.796C584.687 543.712 579.208 542.573 574.234 540.466C570.862 539.033 567.406 536.799 565.045 533.806C561.041 531.614 557.627 528.706 556.826 523.817C556.405 521.077 556.489 518.253 555.899 515.513C555.224 512.394 553.328 510.244 550.799 508.474C548.438 506.788 545.825 505.439 543.717 503.458C541.484 501.351 539.966 498.695 539.123 495.745C538.28 492.71 538.322 489.591 538.364 486.472C538.364 484.154 538.364 481.625 536.763 479.77C533.349 475.766 526.773 476.44 523.696 471.846C520.83 467.546 522.769 461.94 520.282 457.515C518.723 454.859 515.983 453.131 514.887 450.223C514.002 447.862 514.423 445.376 516.109 443.521C520.282 438.969 527.869 438.463 532.801 441.751C535.625 443.647 537.437 446.556 540.05 448.663C542.031 450.307 544.139 450.686 546.668 450.518C551.094 450.265 556.194 449.38 559.439 453.089C564.455 458.779 560.577 471.045 569.345 473.49C572.548 474.417 576.047 473.911 579.292 474.754C582.158 475.471 584.561 477.325 585.91 479.981C587.174 482.383 587.553 485.587 587.469 488.284C587.427 490.898 587.09 493.722 588.228 496.208C589.24 498.442 591.473 499.875 593.328 501.393C595.941 503.543 598.133 506.072 599.946 508.896C602.854 513.616 604.624 519.138 605.594 524.575C606.395 528.959 606.563 533.975 604.371 538.021Z" fill="url(#paint9_linear_8377_22012)"/>
<path d="M591.811 543.838C591.263 543.796 590.673 543.838 590.083 543.796C588.902 541.309 587.807 538.822 586.669 536.377C585.193 533.005 584.055 529.591 582.791 526.177C580.641 520.234 577.648 514.628 574.487 509.191C571.326 503.753 568.123 498.105 564.16 493.174C560.367 488.453 555.983 484.196 551.895 479.686C548.228 475.723 543.844 471.466 541.947 466.282C541.905 466.113 542.116 466.071 542.2 466.198C545.488 471.972 550.63 476.356 555.267 481.034C559.65 485.46 564.245 489.759 567.785 494.902C571.368 500.002 574.74 505.397 577.733 510.877C580.852 516.525 583.423 522.215 585.573 528.285C587.427 533.553 590.167 538.485 591.811 543.838Z" fill="#2DA59A"/>
<path d="M554.676 555.767H630.167C631.263 555.767 632.148 554.882 632.148 553.786V540.677C632.148 539.623 631.263 538.738 630.167 538.738H554.676C553.58 538.738 552.695 539.623 552.695 540.677V553.786C552.695 554.882 553.58 555.767 554.676 555.767Z" fill="#CBCCFF"/>
<path d="M614.909 600.403L626.205 555.767H558.597L571.326 600.403H614.909Z" fill="#AFAFE0"/>
<path opacity="0.1" d="M576.51 597.453C582.79 598.591 613.981 600.572 613.981 600.572H571.325L558.596 555.936H611.663C611.663 555.936 563.949 558.507 565.382 561.963C566.815 565.461 570.23 596.357 576.51 597.453Z" fill="black"/>
<path d="M652.718 144.846H562.517C560.03 144.846 557.964 146.911 557.964 149.482V290.348C557.964 292.919 560.03 295.026 562.517 295.026H652.718C655.247 295.026 657.27 292.919 657.27 290.348V149.482C657.27 146.911 655.247 144.846 652.718 144.846Z" fill="#C7CBE2"/>
<path d="M643.992 286.259H553.791C551.262 286.259 549.239 284.236 549.239 281.707V144.382C549.239 141.853 551.262 139.83 553.791 139.83H643.992C646.479 139.83 648.545 141.853 648.545 144.382V281.707C648.545 284.236 646.479 286.259 643.992 286.259Z" fill="#E2E1EF"/>
<path d="M608.46 227.713H565.72C562.98 227.713 560.704 225.479 560.704 222.739C560.704 219.958 562.98 217.724 565.72 217.724H608.46C611.242 217.724 613.476 219.958 613.476 222.739C613.476 225.479 611.242 227.713 608.46 227.713Z" fill="white"/>
<path d="M632.106 247.608H565.72C562.98 247.608 560.704 245.374 560.704 242.592C560.704 239.81 562.98 237.576 565.72 237.576H632.106C634.846 237.576 637.122 239.81 637.122 242.592C637.122 245.374 634.846 247.608 632.106 247.608Z" fill="white"/>
<path d="M634.972 265.733H562.854C561.674 265.733 560.704 264.763 560.704 263.625V257.809C560.704 256.671 561.674 255.701 562.854 255.701H634.972C636.153 255.701 637.122 256.671 637.122 257.809V263.625C637.122 264.763 636.153 265.733 634.972 265.733Z" fill="white"/>
<path d="M622.665 197.744H575.119C573.265 197.744 571.79 196.269 571.79 194.456V156.943C571.79 155.131 573.265 153.655 575.119 153.655H622.665C624.477 153.655 625.952 155.131 625.952 156.943V194.456C625.952 196.269 624.477 197.744 622.665 197.744Z" fill="white"/>
<path d="M613.813 179.409L604.287 187.839L591.516 170.937L571.874 195.173C572.043 196.774 573.476 198.039 575.288 198.039H622.496C624.393 198.039 625.952 196.648 625.952 194.878V190.452L613.813 179.409Z" fill="#C7CBE2"/>
<path d="M617.48 171.527C617.48 173.508 615.836 175.11 613.813 175.11C611.79 175.11 610.188 173.508 610.188 171.527C610.188 169.546 611.79 167.986 613.813 167.986C615.836 167.986 617.48 169.546 617.48 171.527Z" fill="#C7CBE2"/>
<defs>
<linearGradient id="paint0_linear_8377_22012" x1="371.487" y1="0.863436" x2="493.71" y2="0.863436" gradientUnits="userSpaceOnUse">
<stop stop-color="#EF93F9"/>
<stop offset="1" stop-color="#C168F6"/>
</linearGradient>
<linearGradient id="paint1_linear_8377_22012" x1="79.7094" y1="4.61146" x2="132.786" y2="4.61146" gradientUnits="userSpaceOnUse">
<stop stop-color="#EF93F9"/>
<stop offset="1" stop-color="#C168F6"/>
</linearGradient>
<linearGradient id="paint2_linear_8377_22012" x1="368.998" y1="416.52" x2="369.271" y2="416.52" gradientUnits="userSpaceOnUse">
<stop stop-color="white"/>
<stop offset="1" stop-color="#C69C6D"/>
</linearGradient>
<radialGradient id="paint3_radial_8377_22012" cx="0" cy="0" r="1" gradientUnits="userSpaceOnUse" gradientTransform="translate(368.318 560.325) scale(13.1803 13.1803)">
<stop stop-color="#FFC8AF"/>
<stop offset="1" stop-color="#FFBB9C"/>
</radialGradient>
<radialGradient id="paint4_radial_8377_22012" cx="0" cy="0" r="1" gradientUnits="userSpaceOnUse" gradientTransform="translate(284.842 563.881) scale(12.0052 12.0052)">
<stop stop-color="#FFC8AF"/>
<stop offset="1" stop-color="#FFBB9C"/>
</radialGradient>
<linearGradient id="paint5_linear_8377_22012" x1="291.637" y1="213.035" x2="291.637" y2="299.657" gradientUnits="userSpaceOnUse">
<stop stop-color="#CACAFE"/>
<stop offset="1" stop-color="#B1B0F2"/>
</linearGradient>
<linearGradient id="paint6_linear_8377_22012" x1="330.229" y1="206.239" x2="330.229" y2="376.576" gradientUnits="userSpaceOnUse">
<stop stop-color="#CACAFE"/>
<stop offset="1" stop-color="#B1B0F2"/>
</linearGradient>
<linearGradient id="paint7_linear_8377_22012" x1="711.841" y1="328.738" x2="788.738" y2="461.927" gradientUnits="userSpaceOnUse">
<stop stop-color="#A8F17E"/>
<stop offset="1" stop-color="#009444"/>
</linearGradient>
<linearGradient id="paint8_linear_8377_22012" x1="773.255" y1="407.492" x2="773.255" y2="547.244" gradientUnits="userSpaceOnUse">
<stop stop-color="#A8F17E"/>
<stop offset="1" stop-color="#009444"/>
</linearGradient>
<linearGradient id="paint9_linear_8377_22012" x1="514.437" y1="439.634" x2="606.14" y2="439.634" gradientUnits="userSpaceOnUse">
<stop stop-color="#A8F17E"/>
<stop offset="1" stop-color="#5DCD79"/>
</linearGradient>
</defs>
</svg>
